<svg width="22" height="21" viewBox="0 0 22 21" fill="none" xmlns="http://www.w3.org/2000/svg">
<path d="M11 0C13.9887 0 14.3616 0.0104999 15.5342 0.0629999C16.7057 0.1155 17.5032 0.29085 18.205 0.55125C18.931 0.81795 19.5426 1.17915 20.1542 1.7619C20.7135 2.28679 21.1463 2.92172 21.4225 3.6225C21.6942 4.29135 21.879 5.05365 21.934 6.1719C21.9857 7.2912 22 7.64715 22 10.5C22 13.3528 21.989 13.7088 21.934 14.8281C21.879 15.9463 21.6942 16.7076 21.4225 17.3775C21.1471 18.0787 20.7142 18.7137 20.1542 19.2381C19.6042 19.7718 18.939 20.1849 18.205 20.4487C17.5043 20.7081 16.7057 20.8845 15.5342 20.937C14.3616 20.9863 13.9887 21 11 21C8.0113 21 7.6384 20.9895 6.4658 20.937C5.2943 20.8845 4.4968 20.7081 3.795 20.4487C3.06056 20.1857 2.39528 19.7725 1.8458 19.2381C1.28635 18.7133 0.853524 18.0783 0.5775 17.3775C0.3047 16.7086 0.121 15.9463 0.0659999 14.8281C0.0142999 13.7088 0 13.3528 0 10.5C0 7.64715 0.0109999 7.2912 0.0659999 6.1719C0.121 5.0526 0.3047 4.2924 0.5775 3.6225C0.85276 2.92129 1.28568 2.28619 1.8458 1.7619C2.39544 1.22769 3.06067 0.814516 3.795 0.55125C4.4968 0.29085 5.2932 0.1155 6.4658 0.0629999C7.6384 0.0136499 8.0113 0 11 0ZM11 5.25C9.54131 5.25 8.14236 5.80312 7.11091 6.78769C6.07946 7.77226 5.5 9.10761 5.5 10.5C5.5 11.8924 6.07946 13.2277 7.11091 14.2123C8.14236 15.1969 9.54131 15.75 11 15.75C12.4587 15.75 13.8576 15.1969 14.8891 14.2123C15.9205 13.2277 16.5 11.8924 16.5 10.5C16.5 9.10761 15.9205 7.77226 14.8891 6.78769C13.8576 5.80312 12.4587 5.25 11 5.25ZM18.15 4.9875C18.15 4.6394 18.0051 4.30556 17.7473 4.05942C17.4894 3.81328 17.1397 3.675 16.775 3.675C16.4103 3.675 16.0606 3.81328 15.8027 4.05942C15.5449 4.30556 15.4 4.6394 15.4 4.9875C15.4 5.3356 15.5449 5.66944 15.8027 5.91558C16.0606 6.16172 16.4103 6.3 16.775 6.3C17.1397 6.3 17.4894 6.16172 17.7473 5.91558C18.0051 5.66944 18.15 5.3356 18.15 4.9875ZM11 7.35C11.8752 7.35 12.7146 7.68187 13.3335 8.27261C13.9523 8.86335 14.3 9.66457 14.3 10.5C14.3 11.3354 13.9523 12.1366 13.3335 12.7274C12.7146 13.3181 11.8752 13.65 11 13.65C10.1248 13.65 9.28542 13.3181 8.66655 12.7274C8.04768 12.1366 7.7 11.3354 7.7 10.5C7.7 9.66457 8.04768 8.86335 8.66655 8.27261C9.28542 7.68187 10.1248 7.35 11 7.35Z" fill="white"/>
</svg>
