<svg width="92" height="51" viewBox="0 0 92 51" fill="none" xmlns="http://www.w3.org/2000/svg">
<path d="M42.9232 36.781C42.9232 32.6968 42.9232 32.6968 42.9232 28.6126C34.3128 28.5874 25.7016 28.6076 17.0912 28.537C16.019 28.5281 13.3425 28.764 11.9474 27.9697C10.998 27.4291 10.6378 26.5187 10.5291 25.4196C10.3092 23.1907 10.2951 20.944 10.3092 18.7046C10.3233 16.3074 10.3374 13.9009 10.6137 11.5194C10.715 10.6443 11.8902 8.8193 12.7807 8.56971C14.228 8.16394 15.7775 8.26716 17.2813 8.2483C25.8286 8.14105 34.3759 8.2104 42.9232 8.19154C42.9232 4.10735 42.9232 4.10735 42.9232 0.0230807C35.283 0.0325535 27.6411 -0.0508073 20.0009 0.0514993C13.477 0.138814 5.22178 -1.06053 1.6075 5.72399C1.14524 6.59228 0.81659 7.54484 0.650606 8.51296C0.291253 10.6039 0.0945652 12.7269 0.0406207 14.8473C-0.0456905 18.2692 -4.10575e-05 21.6993 0.231505 25.1145C0.499568 29.0727 1.88718 33.149 5.6608 35.1171C6.79364 35.7079 8.05014 36.1244 9.3224 36.2629C12.7591 36.637 16.2298 36.5907 19.6864 36.644C27.4311 36.7634 35.1776 36.7353 42.9232 36.781Z" fill="white"/>
<path d="M21.435 22.4106C25.0161 22.4106 39.3421 22.4106 42.9232 22.4106C42.9232 21.0492 42.9232 15.6036 42.9232 14.2422C39.3421 14.2422 25.0161 14.2422 21.435 14.2422C21.435 15.6036 21.435 21.0492 21.435 22.4106Z" fill="#FF8800"/>
<path d="M49.1724 22.4106C59.0733 22.4835 68.975 22.4759 78.8751 22.6292C79.2602 22.6352 79.6535 22.7219 80.0005 22.8881C81.3864 23.5525 81.7939 24.6306 81.7483 26.06C81.6852 28.0644 81.6445 30.0716 81.4819 32.0705C81.4329 32.6751 80.8901 34.0232 80.11 34.0582C69.8066 34.5208 59.485 34.3607 49.1724 34.512C49.1724 42.7561 49.1724 42.7561 49.1724 51C54.1254 51 54.1254 51 59.0783 51C59.0783 46.9917 59.0783 46.9917 59.0783 42.9827C65.0678 42.9341 71.0598 42.9827 77.0476 42.836C80.4984 42.752 84.2471 43.1622 87.3303 41.6219C91.4218 39.5765 91.9521 34.7405 91.9836 30.6878C92.0268 24.9946 92.3712 17.4778 85.8588 15.1262C83.4015 14.2387 80.3781 14.3396 77.919 14.3178C68.3377 14.2331 58.7546 14.2674 49.1724 14.2422C49.1724 18.3264 49.1724 18.3264 49.1724 22.4106Z" fill="white"/>
</svg>
